<svg xmlns="http://www.w3.org/2000/svg">
  <symbol id="nodus-mark" viewBox="0 0 64 64">
    <rect width="64" height="64" rx="14" fill="#0f766e"/>
    <path fill="#fff" d="M17 16h9l16 23V16h7v32h-9L24 25v23h-7z"/>
    <path fill="#a7f3d0" d="M18 51h28v4H18z"/>
  </symbol>

  <symbol id="database" viewBox="0 0 24 24">
    <path fill="none" stroke="currentColor" stroke-linecap="round" stroke-linejoin="round" stroke-width="1.8" d="M5 6.5c0-1.93 3.13-3.5 7-3.5s7 1.57 7 3.5S15.87 10 12 10 5 8.43 5 6.5Z"/>
    <path fill="none" stroke="currentColor" stroke-linecap="round" stroke-linejoin="round" stroke-width="1.8" d="M5 6.5v5c0 1.93 3.13 3.5 7 3.5s7-1.57 7-3.5v-5"/>
    <path fill="none" stroke="currentColor" stroke-linecap="round" stroke-linejoin="round" stroke-width="1.8" d="M5 11.5v5c0 1.93 3.13 3.5 7 3.5s7-1.57 7-3.5v-5"/>
  </symbol>

  <symbol id="shards" viewBox="0 0 24 24">
    <path fill="none" stroke="currentColor" stroke-linecap="round" stroke-linejoin="round" stroke-width="1.8" d="M12 3 4 7.5v9L12 21l8-4.5v-9z"/>
    <path fill="none" stroke="currentColor" stroke-linecap="round" stroke-linejoin="round" stroke-width="1.8" d="m4.5 7.75 7.5 4.3 7.5-4.3M12 12v8.5"/>
    <path fill="none" stroke="currentColor" stroke-linecap="round" stroke-linejoin="round" stroke-width="1.8" d="m8 5.75 8 4.6"/>
  </symbol>

  <symbol id="shield" viewBox="0 0 24 24">
    <path fill="none" stroke="currentColor" stroke-linecap="round" stroke-linejoin="round" stroke-width="1.8" d="M12 21s7-3.35 7-9V5.5L12 3 5 5.5V12c0 5.65 7 9 7 9Z"/>
    <path fill="none" stroke="currentColor" stroke-linecap="round" stroke-linejoin="round" stroke-width="1.8" d="m8.75 12 2.15 2.15 4.6-5"/>
  </symbol>

  <symbol id="audit" viewBox="0 0 24 24">
    <path fill="none" stroke="currentColor" stroke-linecap="round" stroke-linejoin="round" stroke-width="1.8" d="M7 3h8l4 4v14H7z"/>
    <path fill="none" stroke="currentColor" stroke-linecap="round" stroke-linejoin="round" stroke-width="1.8" d="M14 3v5h5M10 12h5M10 16h4"/>
    <path fill="none" stroke="currentColor" stroke-linecap="round" stroke-linejoin="round" stroke-width="1.8" d="M4 7v14h11"/>
  </symbol>

  <symbol id="alert" viewBox="0 0 24 24">
    <path fill="none" stroke="currentColor" stroke-linecap="round" stroke-linejoin="round" stroke-width="1.8" d="M10.6 4.3 2.9 18a2 2 0 0 0 1.75 3h14.7a2 2 0 0 0 1.75-3L13.4 4.3a1.6 1.6 0 0 0-2.8 0Z"/>
    <path fill="none" stroke="currentColor" stroke-linecap="round" stroke-width="1.8" d="M12 9v4"/>
    <path fill="currentColor" d="M12 17.75a1.1 1.1 0 1 0 0-2.2 1.1 1.1 0 0 0 0 2.2Z"/>
  </symbol>

  <symbol id="status-dot" viewBox="0 0 16 16">
    <circle cx="8" cy="8" r="6" fill="currentColor"/>
    <circle cx="8" cy="8" r="3" fill="#fff" opacity=".9"/>
  </symbol>
</svg>
